# xmcd
#
# Track frame offsets: 
#        160
#        15524
#        34973
#        53973
#        81190
#        104924
#        117094
#        135832
#        155919
#        172482
#        191010
#        211941
#        234647
#        253977
#
# Disc length: 3746 seconds
#
# Revision: 0
# Processed by: cddbd v1.5.2PL0 Copyright (c) Steve Scherf et al.
# Submitted via: ExactAudioCopy v0.99pb4
#
DISCID=ce0ea00e
DTITLE=Various Artist - Калина красная-4
DYEAR=2000
DGENRE=
TTITLE0=Шуфутинский М. и др. - Пацаны
TTITLE1=Маршалл А. - Рота
TTITLE2=Любавин С. - Грустная
TTITLE3=Грач Г. - Северная история
TTITLE4=Слуцкий И. - Кони
TTITLE5=Бандера А. - По этапу
TTITLE6=Королёв В. - Мама, помолись
TTITLE7=Шуфутинский М. - Барышня-Черешня
TTITLE8=Медяник В. - Я в весеннем лесу...
TTITLE9=Кемеровский Е. - Ещё не осень
TTITLE10=Огонек К. - Одинокое лето
TTITLE11=Шелег М. - За удачу
TTITLE12=Слуцкий И. - Калина красная
TTITLE13=Круг М. - Каторжанская цыганочка
EXTD=
EXTT0=
EXTT1=
EXTT2=
EXTT3=
EXTT4=
EXTT5=
EXTT6=
EXTT7=
EXTT8=
EXTT9=
EXTT10=
EXTT11=
EXTT12=
EXTT13=
PLAYORDER=
